<svg xmlns="http://www.w3.org/2000/svg" viewBox="0 0 64 64" role="img" aria-label="KiddoSpot favicon">
  <defs>
    <style>
      .sun{fill:#F4A940}
      .sun-face{fill:#8C4A14}
      .rail{stroke:#D76620;stroke-width:3.8;stroke-linecap:round;stroke-linejoin:round;fill:none}
      .slide1{stroke:#D76620;stroke-width:4.2;stroke-linecap:round;stroke-linejoin:round;fill:none}
      .slide2{stroke:#95D8E8;stroke-width:3.2;stroke-linecap:round;stroke-linejoin:round;fill:none}
      .slide3{stroke:#8A5A34;stroke-width:3.2;stroke-linecap:round;stroke-linejoin:round;fill:none}
      .ground{fill:#97B86B}
      @media (prefers-color-scheme: dark){
        .ground{fill:#7FA060}
      }
    </style>
  </defs>
  <circle class="sun" cx="45" cy="18" r="10"/>
  <g stroke="#F4A940" stroke-width="3.2" stroke-linecap="round">
    <path d="M45 4v4"/>
    <path d="M56 8l-3 3"/>
    <path d="M60 18h-4"/>
    <path d="M56 28l-3-3"/>
    <path d="M34 8l3 3"/>
  </g>
  <circle class="sun-face" cx="42" cy="16" r="1.2"/>
  <circle class="sun-face" cx="48" cy="16" r="1.2"/>
  <path d="M41 21c1.1 1.8 4.9 1.8 6 0" stroke="#8C4A14" stroke-width="1.8" stroke-linecap="round" fill="none"/>
  <ellipse class="ground" cx="30" cy="53" rx="21" ry="5"/>
  <path class="rail" d="M18 48V20c0-1.7 1.3-3 3-3h5c3 0 5 2 5 5v26"/>
  <path class="rail" d="M18 26h13M18 32h13M18 38h13"/>
  <path class="slide1" d="M30 23c6 0 10 2.5 14 7.5 3.2 4 5.8 10.5 7.5 17.5"/>
  <path class="slide2" d="M28 24c5.5 0 9.3 2.2 13 6.8 2.8 3.4 5.1 8.8 6.6 14.7"/>
  <path class="slide3" d="M34 25c4.2 0 7.5 1.8 10.6 5.3 2.5 2.9 4.5 7.2 6 12.2"/>
</svg>